<?xml version="1.0" standalone="no"?>
<!DOCTYPE svg PUBLIC "-//W3C//DTD SVG 20010904//EN"
 "http://www.w3.org/TR/2001/REC-SVG-20010904/DTD/svg10.dtd">
<svg version="1.0" xmlns="http://www.w3.org/2000/svg"
 width="892.000000pt" height="1280.000000pt" viewBox="0 0 892.000000 1280.000000"
 preserveAspectRatio="xMidYMid meet">

<g transform="translate(0.000000,1280.000000) scale(0.100000,-0.100000)"
fill="rgb(235, 240, 151)" stroke="none">
<path d="M4432 12628 c-14 -206 -15 -603 -2 -708 12 -91 27 -140 44 -140 32 0
139 140 160 209 8 25 34 93 59 151 69 162 152 442 172 582 l7 46 -53 6 c-60 7
-322 26 -355 26 -19 0 -21 -9 -32 -172z"/>
<path d="M2040 11704 c-47 -19 -127 -52 -177 -72 -51 -20 -93 -41 -93 -45 0
-13 96 -151 196 -283 51 -67 101 -139 113 -161 25 -51 149 -218 259 -350 126
-151 139 -150 106 9 -13 62 -37 185 -54 273 -17 88 -47 207 -65 265 -18 58
-48 159 -66 225 -44 163 -50 175 -97 175 -20 0 -75 -16 -122 -36z"/>
<path d="M7578 10968 c-146 -160 -354 -382 -586 -626 -243 -255 -322 -347
-322 -375 0 -15 3 -17 13 -8 8 6 72 31 144 55 84 29 237 98 430 193 320 160
584 286 673 323 30 13 59 26 63 30 24 21 -117 298 -184 363 -21 21 -39 44 -39
51 0 18 -69 96 -85 96 -7 0 -55 -46 -107 -102z"/>
<path d="M3863 10880 c-39 -16 -59 -145 -28 -186 8 -10 15 -41 15 -67 0 -27 4
-57 10 -67 24 -46 96 -540 107 -732 9 -178 1 -189 -174 -237 -157 -43 -181
-53 -347 -143 -294 -158 -384 -227 -646 -495 -280 -285 -388 -465 -447 -742
-13 -63 -29 -121 -36 -129 -16 -20 -23 -387 -8 -465 14 -74 67 -189 138 -296
70 -104 247 -286 363 -371 122 -90 426 -235 658 -314 103 -35 212 -74 242 -86
30 -12 152 -46 270 -76 118 -31 238 -66 267 -80 28 -13 59 -24 68 -24 21 0 81
-31 188 -97 48 -29 181 -100 295 -156 299 -149 393 -212 487 -327 62 -78 102
-147 110 -193 7 -37 0 -75 -44 -240 -35 -137 -64 -195 -106 -217 -16 -8 -63
-34 -103 -57 -40 -24 -77 -43 -83 -43 -6 0 -23 -8 -37 -18 -41 -29 -82 -40
-194 -53 -122 -14 -333 -7 -463 16 -116 20 -423 127 -645 225 -52 23 -237 113
-410 199 -365 183 -381 189 -415 167 -98 -64 -375 -497 -500 -782 -36 -81 -71
-155 -79 -163 -7 -9 -16 -36 -20 -61 -3 -25 -8 -59 -12 -75 -5 -29 0 -35 103
-116 242 -192 414 -314 459 -325 12 -3 27 -17 35 -30 7 -14 24 -27 38 -30 48
-9 315 -117 412 -165 53 -26 158 -73 234 -104 75 -31 149 -62 164 -69 14 -7
69 -21 121 -30 135 -24 130 -22 130 -63 0 -20 -13 -136 -30 -257 -16 -122 -39
-306 -50 -410 -12 -104 -28 -210 -37 -235 -8 -25 -19 -91 -23 -146 -4 -55 -15
-154 -23 -220 -9 -66 -17 -152 -19 -191 l-4 -72 206 -6 c301 -9 855 -36 928
-45 34 -4 63 -6 65 -5 4 5 -22 611 -33 764 -14 194 -36 354 -56 417 -18 55
-32 170 -40 325 l-6 106 54 6 c29 3 125 10 213 16 224 15 324 29 368 52 21 10
87 37 147 58 165 59 246 95 356 161 55 32 105 59 111 59 6 0 24 15 41 34 16
19 38 37 49 40 21 7 195 183 253 256 33 43 137 217 185 310 44 88 95 240 110
332 9 51 24 109 33 128 14 29 16 70 16 245 l0 210 -42 150 c-103 365 -140 455
-250 610 -72 101 -339 370 -416 420 -32 20 -75 51 -95 69 -20 18 -61 46 -91
63 -30 17 -86 52 -125 77 -91 61 -431 231 -566 284 -59 23 -135 48 -169 56
-34 8 -69 21 -78 29 -22 20 -94 39 -282 77 -174 35 -350 99 -488 177 -94 53
-173 131 -212 209 -22 43 -25 61 -25 159 0 101 2 114 28 162 33 63 76 108 158
163 128 88 226 125 379 146 134 18 228 18 370 0 165 -21 253 -42 339 -80 42
-19 114 -50 161 -70 47 -21 108 -51 137 -69 180 -111 233 -149 291 -204 36
-35 73 -63 84 -63 31 0 80 58 152 182 78 135 112 209 160 345 19 56 42 115 49
130 23 43 65 179 82 261 18 87 11 109 -57 164 -58 48 -209 145 -252 163 -20 9
-36 20 -36 25 0 13 -44 35 -132 66 -89 32 -400 188 -486 243 -34 23 -69 41
-77 41 -36 0 -289 72 -335 95 -28 14 -69 42 -92 63 l-41 37 6 125 c7 156 32
353 57 445 22 79 58 346 61 445 3 117 9 107 -78 115 -43 4 -100 13 -128 20
-48 13 -113 19 -611 50 -262 17 -251 17 -281 5z"/>
<path d="M683 9729 c-6 -8 -16 -32 -23 -54 -17 -55 -47 -112 -63 -122 -22 -13
-146 -274 -153 -320 -5 -35 -3 -44 11 -49 10 -4 82 0 159 10 217 26 522 46
726 47 217 2 244 5 248 36 5 32 -77 116 -143 149 -30 14 -56 32 -59 40 -3 8
-15 14 -26 14 -11 0 -69 22 -128 49 -59 27 -132 59 -162 72 -30 13 -100 48
-154 78 -84 47 -109 56 -160 59 -44 3 -65 0 -73 -9z"/>
<path d="M8536 9004 c-66 -14 -172 -42 -235 -64 -64 -21 -179 -57 -256 -80
-77 -23 -181 -59 -230 -80 -50 -21 -115 -43 -145 -48 -72 -14 -101 -25 -123
-50 -61 -68 71 -118 368 -141 536 -41 833 -55 851 -40 19 16 21 498 2 517 -18
18 -100 13 -232 -14z"/>
<path d="M8440 7157 c-7 -8 -209 -34 -399 -52 -90 -9 -180 -22 -200 -30 -20
-8 -72 -19 -116 -25 -90 -12 -105 -23 -105 -81 0 -41 13 -49 88 -49 24 0 56
-7 72 -15 15 -8 131 -44 258 -79 126 -36 258 -76 294 -89 101 -39 540 -128
554 -114 10 10 38 421 31 449 -9 36 -30 55 -75 69 -37 11 -393 26 -402 16z"/>
<path d="M770 6843 c-123 -10 -593 -66 -659 -78 -41 -8 -82 -22 -91 -30 -12
-13 -15 -45 -14 -183 1 -243 29 -383 83 -411 32 -18 70 4 236 133 83 65 186
141 230 170 330 219 489 319 548 346 37 18 67 35 67 40 0 4 -10 10 -22 14 -24
6 -298 5 -378 -1z"/>
<path d="M7667 5123 c-12 -11 -8 -53 8 -83 8 -16 43 -50 77 -76 35 -26 92 -73
128 -103 36 -31 84 -69 108 -84 24 -15 61 -45 84 -65 65 -58 263 -276 339
-373 73 -93 115 -129 146 -129 10 1 34 22 53 48 75 102 141 202 166 253 15 30
36 60 46 67 10 7 18 25 18 41 0 16 7 34 15 41 40 33 1 73 -144 149 -76 40
-282 124 -366 151 -22 7 -101 36 -175 65 -116 46 -159 57 -302 79 -181 28
-191 29 -201 19z"/>
<path d="M997 3890 c-26 -5 -77 -25 -115 -46 -37 -21 -115 -61 -173 -89 -58
-27 -242 -119 -408 -203 -221 -112 -301 -157 -301 -170 0 -32 51 -217 66 -239
9 -14 12 -33 8 -48 -4 -18 -2 -27 11 -31 9 -4 26 -27 36 -52 25 -58 74 -119
111 -138 27 -14 32 -14 71 10 57 33 229 211 256 264 12 24 47 70 77 103 30 32
54 64 54 70 0 6 55 68 123 137 67 70 141 149 162 177 22 27 67 80 100 116 68
74 93 115 79 129 -14 14 -103 20 -157 10z"/>
<path d="M6493 2504 c-12 -31 17 -139 61 -231 25 -51 85 -153 134 -225 138
-206 157 -238 280 -473 130 -250 179 -335 194 -335 5 0 24 10 41 23 18 12 44
29 58 37 35 20 104 101 130 153 12 23 53 86 91 140 41 58 66 102 62 110 -28
48 -169 198 -288 305 -253 228 -384 331 -481 378 -33 16 -98 50 -145 76 -107
58 -128 65 -137 42z"/>
<path d="M1904 2315 c-4 -8 -14 -15 -23 -15 -10 0 -24 -15 -33 -33 -18 -38
-224 -312 -371 -496 -55 -68 -111 -145 -124 -170 -13 -25 -42 -62 -63 -81 -37
-33 -230 -340 -230 -366 0 -6 8 -18 18 -26 25 -23 288 -152 349 -172 61 -20
146 -24 166 -8 30 25 71 141 123 346 29 116 75 272 103 346 41 112 99 309 142
480 14 59 11 163 -7 188 -17 25 -42 29 -50 7z"/>
<path d="M4165 920 c-10 -16 -32 -223 -60 -560 -32 -392 -33 -362 8 -356 17 3
77 13 132 22 55 9 113 23 129 31 17 9 41 13 58 9 23 -4 35 0 55 20 23 23 25
31 20 87 -6 80 -84 316 -143 438 -26 51 -55 118 -65 147 -19 55 -45 99 -87
145 -28 29 -37 33 -47 17z"/>
</g>
</svg>
