<?xml version="1.0" standalone="no"?>
<!DOCTYPE svg PUBLIC "-//W3C//DTD SVG 20010904//EN"
 "http://www.w3.org/TR/2001/REC-SVG-20010904/DTD/svg10.dtd">
<svg version="1.0" xmlns="http://www.w3.org/2000/svg"
 width="500.000000pt" height="500.000000pt" viewBox="0 0 500.000000 500.000000"
 preserveAspectRatio="xMidYMid meet">

<g transform="translate(0.000000,500.000000) scale(0.100000,-0.100000)"
fill="rgb(235, 240, 151)" stroke="none">
<path d="M2200 4980 c-30 -5 -86 -14 -125 -20 -200 -32 -462 -115 -649 -206
-655 -315 -1151 -905 -1330 -1584 -67 -250 -86 -403 -86 -674 0 -308 41 -553
139 -837 241 -696 831 -1280 1535 -1519 534 -181 1082 -181 1626 0 718 238
1312 832 1550 1550 96 288 133 516 133 815 -1 465 -121 901 -356 1286 -344
565 -902 978 -1526 1130 -222 54 -283 61 -576 64 -154 2 -305 0 -335 -5z m645
-264 c250 -43 459 -111 662 -215 392 -200 699 -487 920 -860 156 -262 245
-517 295 -841 17 -112 17 -488 0 -600 -50 -324 -139 -579 -295 -841 -368 -621
-997 -1019 -1722 -1090 -144 -14 -423 -6 -547 15 -251 43 -454 108 -658 212
-580 294 -999 806 -1164 1423 -55 207 -70 328 -71 576 0 240 6 298 52 505 127
576 494 1090 1006 1406 188 116 382 201 581 254 111 29 301 66 386 74 100 9
467 -3 555 -18z"/>
<path d="M2825 4224 c-216 -18 -460 -102 -625 -214 -301 -204 -522 -515 -631
-887 l-21 -72 -146 -3 -147 -3 -47 -160 c-25 -88 -47 -166 -47 -172 -1 -10 38
-13 165 -13 l167 0 -7 -37 c-3 -21 -6 -89 -6 -150 l0 -113 -113 0 -112 0 -45
-162 c-25 -89 -46 -168 -48 -175 -3 -10 32 -13 171 -13 l174 0 23 -102 c125
-564 458 -967 915 -1111 138 -43 247 -59 410 -59 345 0 661 109 925 320 33 26
60 52 60 58 0 10 -68 339 -85 412 -5 21 -13 16 -100 -64 -226 -209 -462 -318
-715 -331 -232 -12 -423 60 -603 226 -150 139 -301 408 -351 624 l-6 27 464 0
463 0 47 164 c25 91 46 169 46 175 0 8 -162 11 -540 11 l-540 0 0 128 c0 70 3
137 6 149 l6 23 570 2 570 3 44 155 c24 85 44 163 44 173 0 16 -34 17 -585 17
l-585 0 6 28 c10 39 60 165 90 223 133 264 347 444 609 515 95 25 338 26 439
1 149 -37 308 -125 464 -256 47 -40 74 -57 77 -49 3 7 34 99 69 205 l64 192
-113 75 c-186 124 -367 197 -550 225 -79 11 -260 20 -320 15z"/>
</g>
</svg>
